<?xml version="1.0" encoding="UTF-8"?>
<svg height="128px" viewBox="0 0 128 128" width="128px" xmlns="http://www.w3.org/2000/svg" xmlns:xlink="http://www.w3.org/1999/xlink">
    <linearGradient id="a" gradientUnits="userSpaceOnUse" x1="1.99999623544" x2="125.99996320166" y1="111.99992196755" y2="111.99992196755">
        <stop offset="0" stop-color="#1456a4"/>
        <stop offset="0.078629" stop-color="#639ee9"/>
        <stop offset="0.191532" stop-color="#1756a1"/>
        <stop offset="0.792339" stop-color="#1c71d8"/>
        <stop offset="0.927419" stop-color="#69a4ec"/>
        <stop offset="1" stop-color="#11417a"/>
    </linearGradient>
    <radialGradient id="b" cx="63.464828" cy="283.705383" gradientTransform="matrix(0.00000302 -1.660609 2.003722 0 -502.466916 219.390286)" gradientUnits="userSpaceOnUse" r="49.90712">
        <stop offset="0" stop-color="#a7cbf3"/>
        <stop offset="1" stop-color="#3584e4" stop-opacity="0"/>
    </radialGradient>
    <radialGradient id="c" cx="63.812965" cy="250.406799" gradientTransform="matrix(0.876301 0.467559 -0.507015 0.95024 134.81186 -195.040949)" gradientUnits="userSpaceOnUse" r="49.90712">
        <stop offset="0" stop-color="#8ff0a4"/>
        <stop offset="0.368988" stop-color="#78d5b3"/>
        <stop offset="1" stop-color="#3584e4"/>
    </radialGradient>
    <path d="m 100.707031 119.605469 h -73.414062 c -8.644531 0 -16.640625 -4.582031 -21.007813 -12.042969 c -4.367187 -7.460938 -4.449218 -16.675781 -0.21875 -24.214844 l 37.578125 -66.933594 c 4.132813 -7.363281 11.914063 -11.917968 20.355469 -11.917968 s 16.222656 4.554687 20.355469 11.917968 l 37.578125 66.933594 c 4.230468 7.539063 4.148437 16.753906 -0.21875 24.214844 c -4.367188 7.460938 -12.363282 12.042969 -21.007813 12.042969 z m 0 0" fill="url(#a)"/>
    <path d="m 100.707031 115.503906 h -73.414062 c -8.644531 0 -16.640625 -4.421875 -21.007813 -11.613281 c -4.367187 -7.195313 -4.449218 -16.082031 -0.21875 -23.351563 l 37.578125 -64.550781 c 4.132813 -7.097656 11.914063 -11.492187 20.355469 -11.492187 s 16.222656 4.394531 20.355469 11.492187 l 37.578125 64.550781 c 4.230468 7.269532 4.148437 16.15625 -0.21875 23.351563 c -4.367188 7.191406 -12.363282 11.613281 -21.007813 11.613281 z m 0 0" fill="url(#b)"/>
    <path d="m 100.707031 112 h -73.414062 c -8.644531 0 -16.640625 -4.28125 -21.007813 -11.25 c -4.367187 -6.964844 -4.449218 -15.574219 -0.21875 -22.613281 l 37.578125 -62.511719 c 4.132813 -6.875 11.914063 -11.128906 20.355469 -11.128906 s 16.222656 4.253906 20.355469 11.128906 l 37.578125 62.511719 c 4.230468 7.039062 4.148437 15.648437 -0.21875 22.613281 c -4.367188 6.96875 -12.363282 11.25 -21.007813 11.25 z m 0 0" fill="url(#c)"/>
    <path d="m 59.175781 92.167969 l 23.648438 -12.335938 c 2.171875 -1.132812 3.535156 -3.382812 3.535156 -5.832031 s -1.363281 -4.699219 -3.535156 -5.832031 l -23.648438 -12.335938 c -2.367187 -1.238281 -5.210937 -1.144531 -7.496093 0.238281 c -2.285157 1.386719 -3.679688 3.863282 -3.679688 6.535157 v 22.789062 c 0 2.671875 1.394531 5.148438 3.679688 6.535157 c 2.285156 1.382812 5.128906 1.476562 7.496093 0.238281 z m 0 0" fill="#ffffff"/>
</svg>
