<?xml version="1.0" encoding="UTF-8"?>
<svg height="16px" viewBox="0 0 16 16" width="16px" xmlns="http://www.w3.org/2000/svg">
    <path d="m 7.457031 13.84375 l 3.082031 -1.933594 c 0.285157 -0.175781 0.460938 -0.527344 0.460938 -0.910156 s -0.175781 -0.734375 -0.460938 -0.910156 l -3.082031 -1.933594 c -0.308593 -0.191406 -0.679687 -0.175781 -0.976562 0.039062 c -0.296875 0.21875 -0.480469 0.605469 -0.480469 1.023438 v 3.5625 c 0 0.417969 0.183594 0.804688 0.480469 1.023438 c 0.296875 0.214843 0.667969 0.230468 0.976562 0.039062 z m 0 0"/>
    <path d="m 1 14 l 1.914062 -7.023438 c 0.640626 -2.347656 2.773438 -3.976562 5.207032 -3.976562 c 2.363281 0.054688 4.394531 1.683594 4.964844 3.976562 l 1.914062 7.023438" fill="none" stroke="#000000" stroke-linecap="round" stroke-linejoin="round" stroke-width="2"/>
</svg>
