<?xml version="1.0" encoding="UTF-8" standalone="no"?>
<!-- Created with Inkscape (http://www.inkscape.org/) -->

<svg
   width="75mm"
   height="75mm"
   viewBox="0 0 63.493652 63.616634"
   version="1.1"
   id="svg1"
   xmlns:xlink="http://www.w3.org/1999/xlink"
   xmlns="http://www.w3.org/2000/svg"
   xmlns:svg="http://www.w3.org/2000/svg">
  <defs
     id="defs1">
    <linearGradient
       id="linear-gradient-2"
       x1="57.349998"
       y1="83.029999"
       x2="250.50999"
       y2="257.42999"
       gradientUnits="userSpaceOnUse"
       gradientTransform="matrix(0.24490339,0,0,0.23211816,39.422917,32.806013)">
      <stop
         offset="0"
         stop-color="#aa5cc3"
         id="stop3" />
      <stop
         offset=".21"
         stop-color="#7a70c9"
         id="stop4" />
      <stop
         offset=".47"
         stop-color="#4686d1"
         id="stop5" />
      <stop
         offset=".7"
         stop-color="#1f96d7"
         id="stop6" />
      <stop
         offset=".89"
         stop-color="#08a0da"
         id="stop7" />
      <stop
         offset="1"
         stop-color="#00a4dc"
         id="stop8" />
    </linearGradient>
    <linearGradient
       xlink:href="#linearGradient29"
       id="linearGradient9"
       gradientUnits="userSpaceOnUse"
       x1="26.114254"
       y1="82.988998"
       x2="149.55704"
       y2="154.25873"
       gradientTransform="matrix(0.4433788,-0.11055274,0.11664206,0.42023215,16.906556,28.340156)" />
    <linearGradient
       id="linearGradient29">
      <stop
         style="stop-color:#aa5cc3;stop-opacity:1;"
         offset="0.19292535"
         id="stop29" />
      <stop
         style="stop-color:#00a4dc;stop-opacity:1;"
         offset="0.73253036"
         id="stop30" />
    </linearGradient>
  </defs>
  <g
     id="layer1"
     transform="translate(-39.422967,-32.808335)">
    <path
       class="cls-1"
       d="m 100.41856,73.203858 -0.999211,-4.178127 -1.682486,-8.203056 c -0.193473,-0.814735 -0.766547,-1.478593 -1.525748,-1.833734 -0.07347,-0.03482 -6.03197,1.376461 -8.657335,1.62947 -0.712669,0.06963 -3.551099,-0.341214 -1.97637,3.623364 1.354316,3.407495 3.394361,11.949443 3.394361,11.949443 0.724914,3.033785 0.01959,5.691538 -2.745367,6.951939 -0.360008,0.164804 -21.879669,0.9424 -21.879669,0.9424 h -0.76165 c -10.489212,0 -10.161041,-5.986327 -9.791237,-11.350578 l 2.235968,-21.354871 c 0.284088,-4.115455 3.889066,-7.316364 8.240999,-7.316364 l 10.535744,-0.84491 c 4.160908,-0.225155 6.497287,2.228334 7.415674,6.083817 0,0 0.509399,3.316968 1.454727,3.24269 1.54534,-0.01857 6.609942,-0.731172 8.270387,-0.768311 1.721671,-0.03946 2.973127,-1.562155 2.593527,-3.154486 L 91.778364,37.06306 C 91.300802,35.064523 89.650153,33.48844 87.534188,33.065985 86.684373,32.896539 85.785578,32.808334 84.8427,32.808334 H 59.091108 c -7.631189,-0.0023 -13.195394,5.552267 -15.262379,13.049683 -0.0049,0.01625 0,0.03482 -0.0024,0.05107 l -4.398465,37.40352 c 0,0.02321 -0.0024,0.04875 -0.0049,0.07196 0.01959,7.22816 6.166667,13.040398 13.797857,13.040398 h 34.293822 c 7.508738,0 15.130137,-5.626544 15.401977,-12.6899 0,-0.05107 -0.002,-0.09981 -0.0147,-0.150876 L 100.421,73.203858 Z"
       id="path9"
       style="fill:url(#linear-gradient-2);stroke-width:0.238425" />
    <path
       id="inner-shape"
       d="M 65.175947,73.887039 C 65.805523,76.155242 81.831374,79.981733 83.8807,78.281937 85.93003,76.582136 81.817413,61.855791 79.177401,61.337126 76.53739,60.818466 64.543286,71.607717 65.175947,73.887039 Z"
       fill="url(#linear-gradient)"
       style="fill:url(#linearGradient9);stroke-width:0.118093" />
  </g>
</svg>
