<?xml version="1.0" encoding="UTF-8" standalone="no"?>
<svg
   height="16"
   viewBox="0 0 16 16"
   width="16"
   version="1.1"
   id="svg2"
   xmlns="http://www.w3.org/2000/svg"
   xmlns:svg="http://www.w3.org/2000/svg">
  <defs
     id="defs2" />
  <path
     d="m 7.457031,13.84375 3.082031,-1.933594 C 10.824219,11.734375 11,11.382812 11,11 11,10.617188 10.824219,10.265625 10.539062,10.089844 L 7.457031,8.15625 C 7.148438,7.964844 6.777344,7.980469 6.480469,8.195312 6.183594,8.414062 6,8.800781 6,9.21875 v 3.5625 c 0,0.417969 0.183594,0.804688 0.480469,1.023438 0.296875,0.214843 0.667969,0.230468 0.976562,0.03906 z m 0,0"
     id="path1" />
  <path
     style="baseline-shift:baseline;display:inline;overflow:visible;opacity:1;vector-effect:none;stroke-linecap:round;stroke-linejoin:round;enable-background:accumulate;stop-color:#000000;stop-opacity:1"
     d="M 8.1210938,2 C 5.2412719,2 2.7073105,3.9347662 1.9492187,6.7128906 L 0.03515625,13.736328 A 1,1 0 0 0 0.73632812,14.964844 1,1 0 0 0 1.9648437,14.263672 L 3.8789063,7.2402344 C 4.4009197,5.3272493 6.1274877,4.0096884 8.109375,4.0039062 10.02114,4.053922 11.653439,5.3620816 12.115234,7.21875 a 1.0001,1.0001 0 0 0 0.0059,0.021484 l 1.914062,7.023438 a 1,1 0 0 0 1.228516,0.701172 1,1 0 0 0 0.701172,-1.228516 L 14.056641,6.734375 C 13.378861,4.0093347 10.953698,2.0650061 8.1445313,2 a 1.0001,1.0001 0 0 0 -0.023437,0 z"
     id="path2" />
</svg>
